<svg width="23" height="38" viewBox="0 0 23 38" fill="none" xmlns="http://www.w3.org/2000/svg">
<path d="M18.7251 9.08013C20.0593 14.5309 19.8394 20.922 16.9803 25.741C15.9393 27.504 17.0683 29.37 17.6694 31.3387C18.08 32.661 18.8131 34.0567 18.3292 35.3496C18.0913 35.9399 17.6877 36.4484 17.1672 36.8134C16.6467 37.1785 16.0317 37.3845 15.3968 37.4064C13.7178 37.5312 12.0319 37.5312 10.353 37.4064C3.19784 36.9656 10.4703 29.2083 8.41758 25.7557C6.6852 22.5348 5.80203 18.9243 5.8517 15.2658C5.8517 13.2236 5.6171 10.0941 7.20062 8.52201C9.51724 6.23006 13.652 6.21539 16.2765 7.44952M6.1596 18.6005C6.30622 20.4076 8.35893 20.6722 9.75183 20.2462C11.1447 19.8201 12.523 18.6152 14.1505 18.292C15.1183 18.0555 16.1387 18.1745 17.0264 18.6274C17.9142 19.0803 18.6105 19.8372 18.989 20.7605M13.2268 23.6252L21.6429 0.5M9.34129 34.409C11.5269 35.0981 13.871 35.0981 16.0566 34.409M5.79305 15.427C5.49858 15.4862 5.19897 15.5158 4.89865 15.5153C3.73206 15.5153 2.61325 15.0509 1.78834 14.2244C0.96343 13.3978 0.5 12.2767 0.5 11.1077C0.5 9.93872 0.96343 8.8176 1.78834 7.99101C2.61325 7.16443 3.73206 6.70008 4.89865 6.70008C6.06525 6.70008 7.18406 7.16443 8.00897 7.99101C8.83387 8.8176 9.29731 9.93872 9.29731 11.1077M6.23291 10.3878C7.68556 11.0575 9.25952 11.4224 10.8581 11.4603C12.4567 11.4982 14.0461 11.2081 15.5287 10.608" stroke="#E95322" stroke-linecap="round" stroke-linejoin="round"/>
</svg>
